PathFileType	4	(X/Y/Z)	s02c0102.trc
DataRate	CameraRate	NumFrames	NumMarkers	Units	OrigDataRate	OrigDataStartFrame	OrigNumFrames
200	200	6	51	mm	200	1000	2000
Frame#	Time	racr			lacr			c7			jug			rlel			rdr			llel			ldr			s2			lic			ric			lasi			rasi			rpsi			lpsi			rgt			lgt			rth1			rth2			rth3			rth4			rlfc			rmfc			rsh1			rsh2			rsh3			rsh4			rlmal			rmmal			rcal			rtoe			rmt5			rmt1			lth1			lth2			lth4			lth3			llfc			lmfc			lsh1			lsh2			lsh3			lsh4			llmal			lmmal			lcal			ltoe			lmt5			SBIKE			LBIKE			RBIKE			
		X1	Y1	Z1	X2	Y2	Z2	X3	Y3	Z3	X4	Y4	Z4	X5	Y5	Z5	X6	Y6	Z6	X7	Y7	Z7	X8	Y8	Z8	X9	Y9	Z9	X10	Y10	Z10	X11	Y11	Z11	X12	Y12	Z12	X13	Y13	Z13	X14	Y14	Z14	X15	Y15	Z15	X16	Y16	Z16	X17	Y17	Z17	X18	Y18	Z18	X19	Y19	Z19	X20	Y20	Z20	X21	Y21	Z21	X22	Y22	Z22	X23	Y23	Z23	X24	Y24	Z24	X25	Y25	Z25	X26	Y26	Z26	X27	Y27	Z27	X28	Y28	Z28	X29	Y29	Z29	X30	Y30	Z30	X31	Y31	Z31	X32	Y32	Z32	X33	Y33	Z33	X34	Y34	Z34	X35	Y35	Z35	X36	Y36	Z36	X37	Y37	Z37	X38	Y38	Z38	X39	Y39	Z39	X40	Y40	Z40	X41	Y41	Z41	X42	Y42	Z42	X43	Y43	Z43	X44	Y44	Z44	X45	Y45	Z45	X46	Y46	Z46	X47	Y47	Z47	X48	Y48	Z48	X49	Y49	Z49	X50	Y50	Z50	X51	Y51	Z51	
1000	5.0000	556.358511	1222.183008	-146.851339	561.401155	1212.274271	-476.781065	554.839268	1242.190935	-313.471046	483.076967	1115.103922	-309.137615	562.501126	976.685162	-44.610742	721.678998	853.247447	-126.049288	523.958059	959.655794	-600.310961	702.736682	844.477927	-518.267127	22.610467	1099.163108	-338.045461	162.663927	1093.638375	-473.500327	143.233413	1107.042951	-186.995992	198.211454	1061.333744	-440.460541	196.506903	1076.917857	-210.884680	51.898960	1150.909567	-294.389067	60.998344	1161.850155	-376.887578	119.120516	1025.258759	-149.270285	114.166369	1002.976001	-508.221741	203.241382	976.022060	-137.717265	284.562012	941.904793	-139.209055	338.021624	879.215436	-114.855138	305.510030	965.546935	-159.912140	431.767222	764.536208	-147.840787	430.449731	748.610594	-256.395586	429.783749	650.729280	-130.399309	432.833876	563.006687	-150.120091	394.763538	485.429965	-147.863883	444.536253	563.932006	-187.974937	355.199833	375.115778	-154.629988	365.123399	396.225792	-235.189309	279.917096	326.346744	-194.924821	567.376105	311.226847	-192.980220	457.487071	300.218817	-132.418747	484.373573	317.212584	-238.879969	238.457479	933.285131	-510.468609	317.942479	898.375845	-504.377516	336.583675	921.955154	-483.381940	370.075936	825.989593	-507.526452	432.553021	750.616887	-485.533982	427.244729	717.487274	-380.596662	370.069245	668.831448	-506.734682	318.923668	600.852987	-492.057308	237.151155	562.403810	-498.999109	332.048388	587.558641	-454.784780	144.197349	505.928453	-491.421996	157.447311	491.832155	-413.985649	66.670557	517.857262	-450.355077	230.948946	283.246795	-437.772447	148.903170	348.470270	-504.555063	-165.063205	857.475864	-316.237604	32.899770	81.687901	-515.234606	32.983018	82.032444	-115.079546	
1001	5.0050	557.658346	1219.571151	-147.844358	561.574701	1210.779513	-478.031651	555.740773	1240.138896	-314.856154	483.163035	1113.515798	-310.662184	564.551773	975.641348	-43.759464	722.515469	852.401541	-126.226039	524.951211	958.268964	-601.654052	703.062036	844.188924	-518.158351	23.102974	1098.213011	-337.408938	162.720394	1092.843002	-473.263390	144.646156	1105.707597	-186.228995	198.533218	1060.798158	-440.148417	197.789380	1075.517382	-210.109970	52.725490	1149.040198	-293.427931	61.770872	1159.779431	-376.151821	119.682071	1023.276201	-148.036668	115.548603	1002.170774	-507.820936	204.746533	973.169768	-135.609587	284.835287	936.311043	-137.959181	336.965772	872.471524	-114.689867	306.201550	959.729440	-159.533112	427.616294	756.023880	-147.818874	424.649755	738.114843	-254.581775	425.742496	642.186864	-129.882941	430.046789	554.562644	-149.096984	392.693962	476.444832	-147.114898	441.847080	555.504728	-187.063167	354.488857	366.113362	-153.842235	363.045440	381.738856	-234.607676	278.766050	318.519592	-194.136839	565.974354	298.824932	-193.001833	456.114061	289.450510	-132.247622	482.974483	306.426684	-238.547035	240.406635	934.938711	-510.815586	320.786764	902.135599	-505.054680	338.874869	926.151532	-484.083462	374.666652	830.793068	-508.099432	438.278231	757.056669	-485.741954	432.943504	723.813257	-380.742661	375.493087	676.062093	-506.720954	323.281486	608.832285	-491.877003	240.952054	571.430349	-498.687970	336.306983	595.410709	-454.651894	147.200555	516.681028	-490.984590	161.026327	502.608432	-413.324192	69.167010	528.599534	-449.509344	233.223690	293.641947	-437.724027	151.390425	359.350498	-504.430494	-165.088331	857.391858	-316.341859	32.889160	81.747234	-515.232940	32.993817	82.033532	-115.063600	
1002	5.0100	558.939284	1217.447320	-148.911421	561.712576	1209.390739	-479.250018	556.635182	1238.298312	-316.223110	483.193194	1112.181505	-311.963332	566.653638	974.655457	-43.438557	723.385903	851.652828	-126.072828	525.362340	957.113511	-602.765306	703.304802	844.055663	-518.066458	23.775252	1097.420804	-336.373549	162.731128	1092.514667	-472.968709	146.135881	1104.776407	-185.434177	198.793200	1060.740567	-439.738311	199.123960	1074.508946	-209.472025	53.554619	1147.709246	-292.398488	61.105896	1159.831941	-374.870592	120.947291	1021.282937	-147.619805	116.816044	1001.892318	-507.357549	206.347830	969.784262	-135.356262	285.419747	931.021767	-137.483244	335.918421	865.808529	-114.068666	307.402796	953.907751	-159.479012	423.531963	747.416688	-147.791533	420.516208	729.182610	-254.550605	421.071046	633.779406	-129.627147	426.186381	546.502315	-148.039224	389.894303	467.853826	-146.159624	438.504327	547.279112	-186.093038	353.323953	357.351763	-152.963198	361.628808	373.165278	-233.612253	277.129280	311.174974	-193.251920	563.961940	286.443518	-193.067937	454.143994	278.808802	-132.035080	481.034298	295.459991	-238.331159	242.225814	937.216848	-511.077144	323.294364	906.296005	-505.693441	340.964764	930.869874	-484.546269	378.707934	836.146286	-508.520097	443.839358	764.038871	-486.000625	438.568525	730.956237	-380.818361	380.517398	683.739856	-506.594035	327.588087	617.238607	-491.708584	244.919417	580.668046	-498.328820	340.308836	603.497264	-454.156951	150.410694	527.308958	-490.512288	164.019372	513.263786	-412.965877	72.064212	539.081249	-448.823243	236.192346	304.421152	-437.811281	154.504029	370.204564	-504.383048	-164.976953	857.591699	-315.744607	32.879693	81.788324	-515.209522	33.005119	82.047339	-115.039372	
1003	5.0150	560.180905	1215.680629	-150.113748	561.785049	1208.154386	-480.590037	557.565754	1236.819916	-317.618622	482.734152	1111.529898	-313.285247	568.603400	973.921068	-43.353029	724.168358	850.885718	-125.864461	525.448118	956.145393	-603.656516	703.404715	844.021485	-517.899059	24.491115	1097.119773	-335.080854	162.686838	1092.752866	-472.571598	147.691333	1104.374254	-184.670235	199.008513	1061.161390	-439.442118	200.418309	1073.897216	-208.909530	54.421846	1147.243735	-291.271708	63.270389	1159.159532	-374.527183	122.583893	1019.815612	-147.319370	117.914106	1002.314811	-506.891517	207.987606	966.521652	-135.128097	286.100274	925.885063	-137.089082	335.105350	859.230606	-113.681302	308.264648	948.031828	-159.349002	418.564639	739.220605	-147.476313	415.637398	720.657891	-254.027450	415.860841	626.087419	-128.976835	421.937340	538.748305	-147.201388	386.384145	459.864689	-145.120737	434.520123	539.668990	-185.084762	351.772430	349.034876	-151.959537	359.789184	364.960917	-232.484064	275.025822	304.218838	-192.178943	561.289575	273.952726	-193.145195	451.553631	268.285253	-131.786654	478.541419	284.776707	-237.985531	243.846105	940.115880	-511.144420	325.593315	911.106881	-506.184751	342.884833	936.017446	-485.346852	382.467504	841.898550	-508.948129	448.861109	771.242217	-485.683621	443.965518	738.499520	-380.751853	385.484748	691.718457	-506.431351	331.884146	625.716415	-491.371323	248.883268	590.032198	-497.912685	344.542933	611.750253	-453.873774	153.794557	537.874333	-490.039209	166.861985	523.609519	-412.591705	75.144636	549.473819	-448.519122	240.058567	315.203942	-437.824120	158.263328	381.111243	-504.364747	-164.916566	857.576660	-316.009074	32.908714	81.839123	-515.220081	33.006532	82.058956	-115.030593	
1004	5.0200	561.368406	1214.283071	-151.389695	561.856928	1207.059824	-481.805714	558.521707	1235.603393	-319.010168	482.041486	1111.322768	-314.532332	570.342687	973.418199	-43.658245	724.853961	850.030914	-125.894285	525.120029	955.210551	-604.357386	703.439419	843.957257	-517.748745	25.301555	1097.432579	-333.533012	162.550033	1093.531141	-472.155541	149.343801	1104.278064	-183.972517	199.203746	1062.110816	-439.184958	201.749028	1073.640388	-208.399870	55.282650	1147.270466	-290.123891	65.155431	1158.626832	-374.031316	124.518461	1018.599321	-146.997556	118.883050	1003.407677	-506.299195	209.759651	963.532635	-134.837838	286.796228	920.774802	-136.736763	334.048232	852.808675	-113.709665	309.246385	942.271300	-158.872997	413.988844	731.138602	-147.654629	410.548441	712.366066	-253.273637	410.220927	618.871054	-128.329561	417.434554	531.575900	-146.130941	382.673673	452.292182	-144.190320	430.162904	532.541656	-183.960262	349.778354	341.096486	-150.910143	359.379232	361.483565	-231.390015	271.760602	298.322677	-190.262107	558.061803	261.455934	-193.446366	448.584381	258.083693	-131.535015	475.299125	274.235627	-237.749670	245.289094	943.677669	-511.047399	327.667802	916.292081	-506.676560	344.599661	941.682307	-486.043757	385.817132	848.171348	-509.198645	453.729696	779.334019	-485.755726	449.239959	746.708842	-380.471941	390.297532	699.946681	-506.102768	336.237094	634.527700	-491.014604	252.887367	599.491186	-497.468966	349.005530	620.832052	-453.930401	157.277561	548.199176	-489.441763	170.572916	533.656084	-411.967343	78.102401	559.299532	-448.174081	244.652382	326.059701	-437.956722	162.606906	391.714053	-504.332438	-164.862512	857.578302	-315.820899	32.952339	81.912238	-515.198904	33.010462	82.071178	-115.043280	
1005	5.0250	562.574882	1213.276589	-152.873492	561.783140	1206.124330	-483.325359	559.441558	1234.722387	-320.466367	481.155718	1111.584276	-315.763604	571.770884	973.152198	-43.935553	725.406978	849.458784	-126.379581	524.581504	954.305688	-604.955173	703.451489	843.906465	-517.750068	25.868364	1098.279729	-332.314358	162.324032	1094.808732	-471.704659	150.911947	1104.468136	-183.404740	199.304612	1063.505287	-438.988611	203.094419	1073.767268	-208.103394	56.108706	1147.973892	-288.939930	66.542166	1159.287066	-373.237252	126.654416	1017.865275	-146.733137	119.563057	1005.328178	-505.845200	211.359490	960.722336	-134.539501	287.216704	915.817518	-136.447173	332.603673	846.428989	-113.700874	310.161344	936.613294	-158.900410	408.593573	723.631036	-147.690656	404.761427	704.647257	-252.786454	403.963755	612.165573	-127.440224	412.397936	524.678350	-145.916263	378.766161	445.344216	-143.122006	425.209521	526.146807	-183.067947	347.292384	333.537758	-149.752671	356.887861	354.271038	-229.937060	268.542771	292.484730	-188.637468	554.203163	249.410180	-193.854240	445.060119	248.352462	-131.267838	471.501583	264.073111	-237.558325	246.515713	947.819022	-510.902676	329.393258	922.018259	-507.012930	346.026148	947.797809	-486.636798	388.608999	854.684988	-508.897180	458.394336	787.622374	-485.709140	451.282142	756.021545	-380.760219	394.911837	708.571612	-505.805732	340.495358	643.509610	-490.617749	256.851586	609.024990	-497.026852	353.354364	630.094936	-454.016986	160.896216	558.228570	-488.783491	173.627154	544.739657	-410.933586	81.245482	568.724958	-447.780385	249.910955	336.909428	-438.048032	167.407382	402.055414	-504.180938	-164.863083	857.589127	-316.036302	32.948418	81.918468	-515.206614	33.030385	82.093471	-115.046885	
